<svg width="370" height="102" viewBox="0 0 370 102" fill="none" xmlns="http://www.w3.org/2000/svg">
<path d="M22.0909 82.1591C18.7727 82.1591 15.7727 81.5455 13.0909 80.3182C10.4091 79.0682 8.28409 77.2614 6.71591 74.8977C5.17045 72.5341 4.39773 69.6364 4.39773 66.2045C4.39773 63.25 4.96591 60.8182 6.10227 58.9091C7.23864 57 8.77273 55.4886 10.7045 54.375C12.6364 53.2614 14.7955 52.4205 17.1818 51.8523C19.5682 51.2841 22 50.8523 24.4773 50.5568C27.6136 50.1932 30.1591 49.8977 32.1136 49.6705C34.0682 49.4205 35.4886 49.0227 36.375 48.4773C37.2614 47.9318 37.7045 47.0455 37.7045 45.8182V45.5795C37.7045 42.6023 36.8636 40.2955 35.1818 38.6591C33.5227 37.0227 31.0455 36.2045 27.75 36.2045C24.3182 36.2045 21.6136 36.9659 19.6364 38.4886C17.6818 39.9886 16.3295 41.6591 15.5795 43.5L6 41.3182C7.13636 38.1364 8.79545 35.5682 10.9773 33.6136C13.1818 31.6364 15.7159 30.2045 18.5795 29.3182C21.4432 28.4091 24.4545 27.9545 27.6136 27.9545C29.7045 27.9545 31.9205 28.2045 34.2614 28.7045C36.625 29.1818 38.8295 30.0682 40.875 31.3636C42.9432 32.6591 44.6364 34.5114 45.9545 36.9205C47.2727 39.3068 47.9318 42.4091 47.9318 46.2273V81H37.9773V73.8409H37.5682C36.9091 75.1591 35.9205 76.4545 34.6023 77.7273C33.2841 79 31.5909 80.0568 29.5227 80.8977C27.4545 81.7386 24.9773 82.1591 22.0909 82.1591ZM24.3068 73.9773C27.125 73.9773 29.5341 73.4205 31.5341 72.3068C33.5568 71.1932 35.0909 69.7386 36.1364 67.9432C37.2045 66.125 37.7386 64.1818 37.7386 62.1136V55.3636C37.375 55.7273 36.6705 56.0682 35.625 56.3864C34.6023 56.6818 33.4318 56.9432 32.1136 57.1705C30.7955 57.375 29.5114 57.5682 28.2614 57.75C27.0114 57.9091 25.9659 58.0455 25.125 58.1591C23.1477 58.4091 21.3409 58.8295 19.7045 59.4205C18.0909 60.0114 16.7955 60.8636 15.8182 61.9773C14.8636 63.0682 14.3864 64.5227 14.3864 66.3409C14.3864 68.8636 15.3182 70.7727 17.1818 72.0682C19.0455 73.3409 21.4205 73.9773 24.3068 73.9773ZM78.6631 101.727C74.504 101.727 70.9244 101.182 67.9244 100.091C64.9472 99 62.5153 97.5568 60.629 95.7614C58.7426 93.9659 57.3335 92 56.4017 89.8636L65.1631 86.25C65.7767 87.25 66.5949 88.3068 67.6176 89.4205C68.6631 90.5568 70.0722 91.5227 71.8449 92.3182C73.6403 93.1136 75.9472 93.5114 78.7653 93.5114C82.629 93.5114 85.8222 92.5682 88.3449 90.6818C90.8676 88.8182 92.129 85.8409 92.129 81.75V71.4545H91.4813C90.8676 72.5682 89.9813 73.8068 88.8222 75.1705C87.6858 76.5341 86.1176 77.7159 84.1176 78.7159C82.1176 79.7159 79.5153 80.2159 76.3108 80.2159C72.1744 80.2159 68.4472 79.25 65.129 77.3182C61.8335 75.3636 59.2199 72.4886 57.2881 68.6932C55.379 64.875 54.4244 60.1818 54.4244 54.6136C54.4244 49.0455 55.3676 44.2727 57.254 40.2955C59.1631 36.3182 61.7767 33.2727 65.0949 31.1591C68.4131 29.0227 72.1744 27.9545 76.379 27.9545C79.629 27.9545 82.254 28.5 84.254 29.5909C86.254 30.6591 87.8108 31.9091 88.9244 33.3409C90.0608 34.7727 90.9358 36.0341 91.5494 37.125H92.2994V28.6364H102.288V82.1591C102.288 86.6591 101.243 90.3523 99.1517 93.2386C97.0608 96.125 94.2313 98.2614 90.6631 99.6477C87.1176 101.034 83.1176 101.727 78.6631 101.727ZM78.5608 71.7614C81.4926 71.7614 83.9699 71.0795 85.9926 69.7159C88.0381 68.3295 89.5835 66.3523 90.629 63.7841C91.6972 61.1932 92.2313 58.0909 92.2313 54.4773C92.2313 50.9545 91.7085 47.8523 90.6631 45.1705C89.6176 42.4886 88.0835 40.3977 86.0608 38.8977C84.0381 37.375 81.5381 36.6136 78.5608 36.6136C75.4926 36.6136 72.9358 37.4091 70.8903 39C68.8449 40.5682 67.2994 42.7045 66.254 45.4091C65.2313 48.1136 64.7199 51.1364 64.7199 54.4773C64.7199 57.9091 65.2426 60.9205 66.2881 63.5114C67.3335 66.1023 68.879 68.125 70.9244 69.5795C72.9926 71.0341 75.5381 71.7614 78.5608 71.7614ZM133.727 82.0568C128.568 82.0568 124.124 80.9545 120.397 78.75C116.693 76.5227 113.829 73.3977 111.806 69.375C109.806 65.3295 108.806 60.5909 108.806 55.1591C108.806 49.7955 109.806 45.0682 111.806 40.9773C113.829 36.8864 116.647 33.6932 120.261 31.3977C123.897 29.1023 128.147 27.9545 133.011 27.9545C135.965 27.9545 138.829 28.4432 141.602 29.4205C144.374 30.3977 146.863 31.9318 149.068 34.0227C151.272 36.1136 153.011 38.8295 154.284 42.1705C155.556 45.4886 156.193 49.5227 156.193 54.2727V57.8864H114.568V50.25H146.204C146.204 47.5682 145.659 45.1932 144.568 43.125C143.477 41.0341 141.943 39.3864 139.965 38.1818C138.011 36.9773 135.715 36.375 133.079 36.375C130.215 36.375 127.715 37.0795 125.579 38.4886C123.465 39.875 121.829 41.6932 120.67 43.9432C119.534 46.1705 118.965 48.5909 118.965 51.2045V57.1705C118.965 60.6705 119.579 63.6477 120.806 66.1023C122.056 68.5568 123.795 70.4318 126.022 71.7273C128.249 73 130.852 73.6364 133.829 73.6364C135.761 73.6364 137.522 73.3636 139.113 72.8182C140.704 72.25 142.079 71.4091 143.238 70.2955C144.397 69.1818 145.284 67.8068 145.897 66.1705L155.545 67.9091C154.772 70.75 153.386 73.2386 151.386 75.375C149.409 77.4886 146.92 79.1364 143.92 80.3182C140.943 81.4773 137.545 82.0568 133.727 82.0568ZM162.702 81V28.6364H172.486V37.1591H173.134C174.225 34.2727 176.009 32.0227 178.486 30.4091C180.964 28.7727 183.93 27.9545 187.384 27.9545C190.884 27.9545 193.816 28.7727 196.18 30.4091C198.566 32.0455 200.327 34.2955 201.464 37.1591H202.009C203.259 34.3636 205.248 32.1364 207.975 30.4773C210.702 28.7955 213.952 27.9545 217.725 27.9545C222.475 27.9545 226.35 29.4432 229.35 32.4205C232.373 35.3977 233.884 39.8864 233.884 45.8864V81H223.691V46.8409C223.691 43.2955 222.725 40.7273 220.793 39.1364C218.861 37.5455 216.555 36.75 213.873 36.75C210.555 36.75 207.975 37.7727 206.134 39.8182C204.293 41.8409 203.373 44.4432 203.373 47.625V81H193.214V46.1932C193.214 43.3523 192.327 41.0682 190.555 39.3409C188.782 37.6136 186.475 36.75 183.634 36.75C181.702 36.75 179.918 37.2614 178.282 38.2841C176.668 39.2841 175.361 40.6818 174.361 42.4773C173.384 44.2727 172.895 46.3523 172.895 48.7159V81H162.702ZM242.746 100.636V28.6364H252.701V37.125H253.553C254.144 36.0341 254.996 34.7727 256.11 33.3409C257.223 31.9091 258.769 30.6591 260.746 29.5909C262.723 28.5 265.337 27.9545 268.587 27.9545C272.814 27.9545 276.587 29.0227 279.905 31.1591C283.223 33.2955 285.826 36.375 287.712 40.3977C289.621 44.4205 290.576 49.2614 290.576 54.9205C290.576 60.5795 289.632 65.4318 287.746 69.4773C285.86 73.5 283.269 76.6023 279.973 78.7841C276.678 80.9432 272.916 82.0227 268.689 82.0227C265.507 82.0227 262.905 81.4886 260.882 80.4205C258.882 79.3523 257.314 78.1023 256.178 76.6705C255.041 75.2386 254.166 73.9659 253.553 72.8523H252.939V100.636H242.746ZM252.735 54.8182C252.735 58.5 253.269 61.7273 254.337 64.5C255.405 67.2727 256.951 69.4432 258.973 71.0114C260.996 72.5568 263.473 73.3295 266.405 73.3295C269.451 73.3295 271.996 72.5227 274.041 70.9091C276.087 69.2727 277.632 67.0568 278.678 64.2614C279.746 61.4659 280.28 58.3182 280.28 54.8182C280.28 51.3636 279.757 48.2614 278.712 45.5114C277.689 42.7614 276.144 40.5909 274.076 39C272.03 37.4091 269.473 36.6136 266.405 36.6136C263.451 36.6136 260.951 37.375 258.905 38.8977C256.882 40.4205 255.348 42.5455 254.303 45.2727C253.257 48 252.735 51.1818 252.735 54.8182ZM319.253 82.0568C314.344 82.0568 310.06 80.9318 306.401 78.6818C302.741 76.4318 299.901 73.2841 297.878 69.2386C295.855 65.1932 294.844 60.4659 294.844 55.0568C294.844 49.625 295.855 44.875 297.878 40.8068C299.901 36.7386 302.741 33.5795 306.401 31.3295C310.06 29.0795 314.344 27.9545 319.253 27.9545C324.162 27.9545 328.446 29.0795 332.105 31.3295C335.764 33.5795 338.605 36.7386 340.628 40.8068C342.651 44.875 343.662 49.625 343.662 55.0568C343.662 60.4659 342.651 65.1932 340.628 69.2386C338.605 73.2841 335.764 76.4318 332.105 78.6818C328.446 80.9318 324.162 82.0568 319.253 82.0568ZM319.287 73.5C322.469 73.5 325.105 72.6591 327.196 70.9773C329.287 69.2955 330.832 67.0568 331.832 64.2614C332.855 61.4659 333.366 58.3864 333.366 55.0227C333.366 51.6818 332.855 48.6136 331.832 45.8182C330.832 43 329.287 40.7386 327.196 39.0341C325.105 37.3295 322.469 36.4773 319.287 36.4773C316.082 36.4773 313.423 37.3295 311.31 39.0341C309.219 40.7386 307.662 43 306.639 45.8182C305.639 48.6136 305.139 51.6818 305.139 55.0227C305.139 58.3864 305.639 61.4659 306.639 64.2614C307.662 67.0568 309.219 69.2955 311.31 70.9773C313.423 72.6591 316.082 73.5 319.287 73.5Z" fill="#E4572E"/>
<path d="M349.299 15.6775L337.031 27.9455C336.111 28.8654 336.109 30.3494 337.03 31.2697L338.541 32.7812C339.461 33.7014 340.945 33.6999 341.865 32.78L354.133 20.512L353.904 29.7647L353.904 29.7671C353.876 31.0815 354.933 32.1695 356.252 32.1688L358.347 32.1677C358.347 32.1677 358.348 32.1677 358.349 32.1677C359.649 32.1729 360.699 31.1162 360.7 29.8187L360.709 11.4492C360.709 11.4484 360.709 11.4476 360.709 11.4468C360.715 10.1463 359.659 9.09636 358.361 9.09703H358.361L339.996 9.11114C339.995 9.11113 339.994 9.11113 339.994 9.11113C338.694 9.10613 337.644 10.1627 337.643 11.4602L337.642 13.5545C337.642 13.5552 337.642 13.5559 337.642 13.5566C337.635 14.8821 338.726 15.9411 340.047 15.9063C340.047 15.9063 340.047 15.9063 340.047 15.9063L349.299 15.6775Z" fill="#E4572E" stroke="#FFFEFB" stroke-width="1.49324"/>
</svg>
